<?xml version="1.0"?>
<svg xmlns="http://www.w3.org/2000/svg" height="512px" viewBox="0 0 60 60" width="512px" class=""><g><g id="Page-1" fill="none" fill-rule="evenodd"><g id="017---Dashboard" fill="rgb(0,0,0)" fill-rule="nonzero" transform="translate(-1 -1)"><path id="Shape" d="m47.9756 30.0806c.0490173 1.0688432.9261571 1.912279 1.9961 1.9194h9.0058c.5456541-.0015082 1.067565-.2233555 1.4473-.6152.3755928-.3844652.576822-.9063018.5566-1.4434-.5688746-16.1474387-13.8239437-28.94375474-29.9814-28.94375474s-29.41252545 12.79631604-29.9814 28.94375474c-.02022196.5370982.18100723 1.0589348.5566 1.4434.37973495.3918445.90164586.6136918 1.4473.6152h9.0058c1.0696313-.0070465 1.9466686-.8499882 1.9961-1.9185.2608005-4.8810481 2.6114631-9.4132313 6.4511281-12.4380651 3.8396651-3.0248338 8.7962078-4.2491636 13.6026719-3.3600349l-4.6027 8.8666c-3.5306205.6776857-6.1778916 3.6236533-6.475703 7.2063684-.2978113 3.5827151 1.8267242 6.9253366 5.1969972 8.1766554 3.370273 1.2513189 7.161436.1050848 9.2738688-2.8038956 2.1124329-2.9089803 2.0291345-6.8687569-.203763-9.6863282l2.2783-9.7342c4.9580488 2.8699493 8.1296094 8.0514065 8.43 13.7723zm1.998-.1055c-.2388868-4.3320089-1.955041-8.4513438-4.8625-11.6716l6.3821-6.3825c4.6000145 4.9222944 7.2591269 11.3456195 7.4843 18.079zm-31.6685-13.0837-6.3836-6.3839c4.9191973-4.60435108 11.3442246-7.26381519 18.0785-7.4831v9.0244c-4.3398381.2184228-8.4710481 1.9290657-11.6949 4.8426zm-6.2768 13.1086-9.0117.0107c.22781012-6.7371551 2.88864994-13.1636694 7.49-18.09l6.3821 6.3824c-2.9119936 3.2272138-4.6277632 7.356336-4.8604 11.6969zm23.5564-5.5458c-1.1225433-.7918531-2.4312283-1.2791085-3.7983-1.4142l7.52-14.4877zm-4.5847 12.5458c-3.3137085 0-6-2.6862915-6-6s2.6862915-6 6-6 6 2.6862915 6 6c-.0036374 3.3122007-2.6877993 5.9963626-6 6zm8.9961-30.33c-.9459638-.36008331-2.0109058.054846-2.4639.96l-2.4971 4.81c-.9988324-.218851-2.0139382-.3553758-3.0351-.4082v-9.0074c6.7342754.21928481 13.1593027 2.87874892 18.0785 7.4831l-6.3775 6.3778c-1.1204428-1.0077651-2.3571948-1.8781578-3.684-2.5927l1.2369-5.2848c.2422922-.98651623-.3010526-1.99639973-1.2578-2.3378z" data-original="#000000" class="active-path" data-old_color="#000000" fill="#079186"/><path id="Shape" d="m31 28c-1.6568542 0-3 1.3431458-3 3s1.3431458 3 3 3 3-1.3431458 3-3c-.0018187-1.6561003-1.3438997-2.9981813-3-3zm0 4c-.5522847 0-1-.4477153-1-1s.4477153-1 1-1 1 .4477153 1 1c-.0004962.5520791-.4479209.9995038-1 1z" data-original="#000000" class="active-path" data-old_color="#000000" fill="#079186"/><path id="Shape" d="m39.3408 52.0308c.6095053-.6205026.8176293-1.5313596.5381-2.355-.2588066-.801818-.9474271-1.3893119-1.78-1.5186l-3.4033-.5161c-.0757993-.0156652-.1389937-.0677099-.1689-.1391l-1.5215-3.2164c-.3596471-.7835869-1.1428199-1.2858543-2.005-1.2858543s-1.6453529.5022674-2.005 1.2858543l-1.5215 3.2168c-.0302244.0715154-.0938733.1234455-.17.1387l-3.4014.5161c-.8330285.1288699-1.5222007.7164383-1.7812 1.5186-.2795882.8234792-.0714455 1.7342244.5381 2.3545l2.4608 2.5029c.0669621.0727991.0964951.1724728.08.27l-.5811 3.5347c-.1510468.8681145.2108878 1.7456697.93 2.2549.6819497.4879869 1.5838191.5400583 2.3174.1338l3.044-1.6695c.056116-.0315395.1246595-.0313497.1806.0005l3.043 1.669c.7336316.4060357 1.6353743.3539717 2.3174-.1338.7191122-.5092303 1.0810468-1.3867855.93-2.2549l-.5813-3.5342c-.0165952-.0973775.0125822-.1969716.0791-.27zm-3.8887 1.101c-.513711.5282346-.7457207 1.2692181-.625 1.9961l.5811 3.5347c.0249494.1128991-.0190914.2298835-.1123.2983-.0571631.0476765-.138695.0526203-.2012.0122l-3.042-1.6684c-.6548845-.3616671-1.4496155-.3616671-2.1045 0l-3.0429 1.6689c-.062673.0397747-.143792.0348559-.2012-.0122-.0932086-.0684165-.1372494-.1854009-.1123-.2983l.5811-3.5347c.1207761-.7272182-.1116453-1.4685162-.626-1.9966l-2.4619-2.5044c-.0815768-.0848704-.1073784-.2089436-.0664-.3193.0220991-.0886308.0937515-.1563003.1835-.1733l3.4014-.5161c.7347374-.1145459 1.3641771-.5874787 1.6787-1.2613l1.5215-3.2163c.0285454-.0840979.1074896-.1406697.1963-.1406697s.1677546.0565718.1963.1406697l1.5215 3.2158c.3141314.6738075.943194 1.1469261 1.6777 1.2618l3.4033.5161c.0894023.0173152.1606393.084924.1826.1733.041024.1105771.0152324.2348741-.0664.32z" data-original="#000000" class="active-path" data-old_color="#000000" fill="#079186"/><path id="Shape" d="m4.12 54.5332c.06696212.0727991.09649509.1724728.08.27l-.5811 3.5347c-.15104684.8681145.21088778 1.7456697.93 2.2549.68195818.487963 1.5838135.5400335 2.3174.1338l3.0437-1.669c.05611604-.0315395.1246595-.0313497.1806.0005l3.043 1.669c.7336316.4060357 1.6353743.3539717 2.3174-.1338.7191122-.5092303 1.0810468-1.3867855.93-2.2549l-.581-3.5347c-.0165952-.0973775.0125822-.1969716.0791-.27l2.4619-2.5029c.6095053-.6205026.8176293-1.5313596.5381-2.355-.2588066-.801818-.9474271-1.3893119-1.78-1.5186l-3.4033-.5161c-.0757993-.0156652-.1389937-.0677099-.1689-.1391l-1.5215-3.2164c-.3596471-.7835869-1.1428199-1.2858543-2.005-1.2858543-.86218006 0-1.64535287.5022674-2.005 1.2858543l-1.5218 3.2168c-.03022441.0715154-.09387333.1234455-.17.1387l-3.4014.5161c-.83299056.1289048-1.52211676.716467-1.7811 1.5186-.27946427.8233907-.07132975 1.733984.5381 2.3542zm-1.1014-4.2251c.02209907-.0886308.09375147-.1563003.1835-.1733l3.4014-.5161c.73473738-.1145459 1.36417707-.5874787 1.6787-1.2613l1.5215-3.2163c.02854543-.0840979.10748956-.1406697.1963-.1406697.0888104 0 .1677546.0565718.1963.1406697l1.5215 3.2158c.3141314.6738075.943194 1.1469261 1.6777 1.2618l3.4033.5161c.0894023.0173152.1606393.084924.1826.1733.041024.1105771.0152324.2348741-.0664.32l-2.4629 2.5039c-.513711.5282346-.7457207 1.2692181-.625 1.9961l.5811 3.5347c.0249494.1128991-.0190914.2298835-.1123.2983-.0571631.0476765-.138695.0526203-.2012.0122l-3.042-1.6684c-.6548845-.3616671-1.44961549-.3616671-2.1045 0l-3.0429 1.6682c-.06268122.0397429-.14378008.0348254-.2012-.0122-.09320865-.0684165-.13724939-.1854009-.1123-.2983l.5811-3.5347c.12077608-.7272182-.1116453-1.4685162-.626-1.9966l-2.4619-2.5039c-.08157677-.0848704-.1073784-.2089436-.0664-.3193z" data-original="#000000" class="active-path" data-old_color="#000000" fill="#079186"/><path id="Shape" d="m60.3408 52.0308c.6095053-.6205026.8176293-1.5313596.5381-2.355-.2588066-.801818-.9474271-1.3893119-1.78-1.5186l-3.4033-.5161c-.0757993-.0156652-.1389937-.0677099-.1689-.1391l-1.5215-3.2164c-.3596471-.7835869-1.1428199-1.2858543-2.005-1.2858543s-1.6453529.5022674-2.005 1.2858543l-1.5215 3.2168c-.0302244.0715154-.0938733.1234455-.17.1387l-3.4014.5161c-.8330285.1288699-1.5222007.7164383-1.7812 1.5186-.2795882.8234792-.0714455 1.7342244.5381 2.3545l2.4608 2.5029c.0669621.0727991.0964951.1724728.08.27l-.5811 3.5347c-.1510468.8681145.2108878 1.7456697.93 2.2549.6819413.4880108 1.5838248.540083 2.3174.1338l3.044-1.6695c.056116-.0315395.1246595-.0313497.1806.0005l3.043 1.669c.7336316.4060357 1.6353743.3539717 2.3174-.1338.7191122-.5092303 1.0810468-1.3867855.93-2.2549l-.5813-3.5342c-.0165952-.0973775.0125822-.1969716.0791-.27zm-3.8887 1.101c-.513711.5282346-.7457207 1.2692181-.625 1.9961l.5811 3.5347c.0249494.1128991-.0190914.2298835-.1123.2983-.0571631.0476765-.138695.0526203-.2012.0122l-3.042-1.6684c-.6548845-.3616671-1.4496155-.3616671-2.1045 0l-3.0429 1.6689c-.062673.0397747-.143792.0348559-.2012-.0122-.0932086-.0684165-.1372494-.1854009-.1123-.2983l.5811-3.5347c.1207761-.7272182-.1116453-1.4685162-.626-1.9966l-2.4619-2.5044c-.0815768-.0848704-.1073784-.2089436-.0664-.3193.0220991-.0886308.0937515-.1563003.1835-.1733l3.4014-.5161c.7347374-.1145459 1.3641771-.5874787 1.6787-1.2613l1.5215-3.2163c.0285454-.0840979.1074896-.1406697.1963-.1406697s.1677546.0565718.1963.1406697l1.5215 3.2158c.3141314.6738075.943194 1.1469261 1.6777 1.2618l3.4033.5161c.0894023.0173152.1606393.084924.1826.1733.041024.1105771.0152324.2348741-.0664.32z" data-original="#000000" class="active-path" data-old_color="#000000" fill="#079186"/></g></g></g> </svg>
